<svg width="42" height="43" viewBox="0 0 42 43" fill="none" xmlns="http://www.w3.org/2000/svg">
<g filter="url(#filter0_d_418_4701)">
<path d="M34.0244 14.1952H37.5793" stroke="white" stroke-width="1.1337" stroke-miterlimit="10" stroke-linecap="round"/>
</g>
<g filter="url(#filter1_d_418_4701)">
<path d="M34.0244 17.5182H37.5793" stroke="white" stroke-width="1.1337" stroke-miterlimit="10" stroke-linecap="round"/>
</g>
<g filter="url(#filter2_d_418_4701)">
<path d="M34.0244 20.8411H37.5793" stroke="white" stroke-width="1.1337" stroke-miterlimit="10" stroke-linecap="round"/>
</g>
<g filter="url(#filter3_d_418_4701)">
<path d="M34.0244 24.1637H37.5793" stroke="white" stroke-width="1.1337" stroke-miterlimit="10" stroke-linecap="round"/>
</g>
<g filter="url(#filter4_d_418_4701)">
<path d="M34.0244 27.4867H37.5793" stroke="white" stroke-width="1.1337" stroke-miterlimit="10" stroke-linecap="round"/>
</g>
<g filter="url(#filter5_d_418_4701)">
<path d="M7 14.1952H10.5549" stroke="white" stroke-width="1.1337" stroke-miterlimit="10" stroke-linecap="round"/>
</g>
<g filter="url(#filter6_d_418_4701)">
<path d="M7 17.5182H10.5549" stroke="white" stroke-width="1.1337" stroke-miterlimit="10" stroke-linecap="round"/>
</g>
<g filter="url(#filter7_d_418_4701)">
<path d="M7 20.8411H10.5549" stroke="white" stroke-width="1.1337" stroke-miterlimit="10" stroke-linecap="round"/>
</g>
<g filter="url(#filter8_d_418_4701)">
<path d="M7 24.1637H10.5549" stroke="white" stroke-width="1.1337" stroke-miterlimit="10" stroke-linecap="round"/>
</g>
<g filter="url(#filter9_d_418_4701)">
<path d="M7 27.4867H10.5549" stroke="white" stroke-width="1.1337" stroke-miterlimit="10" stroke-linecap="round"/>
</g>
<g filter="url(#filter10_d_418_4701)">
<path d="M15.1797 35.2023V31.8795" stroke="white" stroke-width="1.1337" stroke-miterlimit="10" stroke-linecap="round"/>
</g>
<g filter="url(#filter11_d_418_4701)">
<path d="M18.7344 35.2023V31.8795" stroke="white" stroke-width="1.1337" stroke-miterlimit="10" stroke-linecap="round"/>
</g>
<g filter="url(#filter12_d_418_4701)">
<path d="M25.8442 35.2023V31.8795" stroke="white" stroke-width="1.1337" stroke-miterlimit="10" stroke-linecap="round"/>
</g>
<g filter="url(#filter13_d_418_4701)">
<path d="M29.3999 35.2023V31.8795" stroke="white" stroke-width="1.1337" stroke-miterlimit="10" stroke-linecap="round"/>
</g>
<g filter="url(#filter14_d_418_4701)">
<path d="M15.1797 9.80244V6.47961" stroke="white" stroke-width="1.1337" stroke-miterlimit="10" stroke-linecap="round"/>
</g>
<g filter="url(#filter15_d_418_4701)">
<path d="M18.7344 9.80244V6.47961" stroke="white" stroke-width="1.1337" stroke-miterlimit="10" stroke-linecap="round"/>
</g>
<g filter="url(#filter16_d_418_4701)">
<path d="M25.8442 9.80244V6.47961" stroke="white" stroke-width="1.1337" stroke-miterlimit="10" stroke-linecap="round"/>
</g>
<g filter="url(#filter17_d_418_4701)">
<path d="M29.3999 9.80244V6.47961" stroke="white" stroke-width="1.1337" stroke-miterlimit="10" stroke-linecap="round"/>
</g>
<g filter="url(#filter18_d_418_4701)">
<mask id="path-19-inside-1_418_4701" fill="white">
<path d="M30.8975 11.2968C31.7813 11.2968 32.5001 11.9687 32.5001 12.7948V28.8884C32.5001 29.7145 31.7813 30.3864 30.8975 30.3864H13.6816C12.7978 30.3864 12.079 29.7145 12.079 28.8884V12.7948C12.079 11.9687 12.7978 11.2968 13.6816 11.2968H30.899H30.8975ZM30.899 10.8724H13.6816C12.5451 10.8724 11.625 11.7325 11.625 12.7948V28.8884C11.625 29.9508 12.5451 30.8108 13.6816 30.8108H30.899C32.0355 30.8108 32.9557 29.9508 32.9557 28.8884V12.7948C32.9557 11.7325 32.0355 10.8724 30.899 10.8724Z"/>
</mask>
<path d="M30.8975 11.2968C31.7813 11.2968 32.5001 11.9687 32.5001 12.7948V28.8884C32.5001 29.7145 31.7813 30.3864 30.8975 30.3864H13.6816C12.7978 30.3864 12.079 29.7145 12.079 28.8884V12.7948C12.079 11.9687 12.7978 11.2968 13.6816 11.2968H30.899H30.8975ZM30.899 10.8724H13.6816C12.5451 10.8724 11.625 11.7325 11.625 12.7948V28.8884C11.625 29.9508 12.5451 30.8108 13.6816 30.8108H30.899C32.0355 30.8108 32.9557 29.9508 32.9557 28.8884V12.7948C32.9557 11.7325 32.0355 10.8724 30.899 10.8724Z" fill="#2E68FF"/>
<path d="M30.8975 12.4981C31.0327 12.4981 31.1407 12.549 31.2099 12.6136C31.2778 12.6771 31.2989 12.7418 31.2989 12.7948H33.7014C33.7014 11.2302 32.3671 10.0955 30.8975 10.0955V12.4981ZM31.2989 12.7948V28.8884H33.7014V12.7948H31.2989ZM31.2989 28.8884C31.2989 28.9414 31.2778 29.0062 31.2099 29.0696C31.1407 29.1343 31.0327 29.1852 30.8975 29.1852V31.5877C32.3671 31.5877 33.7014 30.4531 33.7014 28.8884H31.2989ZM30.8975 29.1852H13.6816V31.5877H30.8975V29.1852ZM13.6816 29.1852C13.5464 29.1852 13.4384 29.1343 13.3692 29.0696C13.3013 29.0062 13.2803 28.9414 13.2803 28.8884H10.8777C10.8777 30.4531 12.2121 31.5877 13.6816 31.5877V29.1852ZM13.2803 28.8884V12.7948H10.8777V28.8884H13.2803ZM13.2803 12.7948C13.2803 12.7418 13.3013 12.6771 13.3692 12.6136C13.4384 12.549 13.5464 12.4981 13.6816 12.4981V10.0955C12.2121 10.0955 10.8777 11.2302 10.8777 12.7948H13.2803ZM13.6816 12.4981H30.899V10.0955H13.6816V12.4981ZM30.899 10.0955H30.8975V12.4981H30.899V10.0955ZM30.899 9.67115H13.6816V12.0737H30.899V9.67115ZM13.6816 9.67115C11.9593 9.67115 10.4237 10.994 10.4237 12.7948H12.8263C12.8263 12.471 13.1309 12.0737 13.6816 12.0737V9.67115ZM10.4237 12.7948V28.8884H12.8263V12.7948H10.4237ZM10.4237 28.8884C10.4237 30.6893 11.9593 32.0121 13.6816 32.0121V29.6095C13.1309 29.6095 12.8263 29.2122 12.8263 28.8884H10.4237ZM13.6816 32.0121H30.899V29.6095H13.6816V32.0121ZM30.899 32.0121C32.6213 32.0121 34.1569 30.6893 34.1569 28.8884H31.7544C31.7544 29.2122 31.4498 29.6095 30.899 29.6095V32.0121ZM34.1569 28.8884V12.7948H31.7544V28.8884H34.1569ZM34.1569 12.7948C34.1569 10.994 32.6213 9.67115 30.899 9.67115V12.0737C31.4497 12.0737 31.7544 12.471 31.7544 12.7948H34.1569Z" fill="white" mask="url(#path-19-inside-1_418_4701)"/>
</g>
<g filter="url(#filter19_d_418_4701)">
<mask id="path-21-inside-2_418_4701" fill="white">
<path d="M29.4435 12.9814C30.1351 12.9814 30.6981 13.5076 30.6981 14.1541V27.5274C30.6981 28.1739 30.1351 28.7001 29.4435 28.7001H15.1363C14.4447 28.7001 13.8817 28.1739 13.8817 27.5274V14.1541C13.8817 13.5076 14.4447 12.9814 15.1363 12.9814H29.4435ZM29.4435 12.557H15.1363C14.192 12.557 13.4277 13.2728 13.4277 14.1541V27.5274C13.4277 28.4101 14.1935 29.1245 15.1363 29.1245H29.4435C30.3878 29.1245 31.1521 28.4087 31.1521 27.5274V14.1541C31.1521 13.2714 30.3863 12.557 29.4435 12.557Z"/>
</mask>
<path d="M29.4435 12.9814C30.1351 12.9814 30.6981 13.5076 30.6981 14.1541V27.5274C30.6981 28.1739 30.1351 28.7001 29.4435 28.7001H15.1363C14.4447 28.7001 13.8817 28.1739 13.8817 27.5274V14.1541C13.8817 13.5076 14.4447 12.9814 15.1363 12.9814H29.4435ZM29.4435 12.557H15.1363C14.192 12.557 13.4277 13.2728 13.4277 14.1541V27.5274C13.4277 28.4101 14.1935 29.1245 15.1363 29.1245H29.4435C30.3878 29.1245 31.1521 28.4087 31.1521 27.5274V14.1541C31.1521 13.2714 30.3863 12.557 29.4435 12.557Z" fill="#2E68FF"/>
<path d="M29.4435 14.1827C29.4824 14.1827 29.5035 14.1969 29.5098 14.2029C29.5127 14.2055 29.5095 14.2036 29.5052 14.1941C29.5004 14.1835 29.4968 14.1689 29.4968 14.1541H31.8994C31.8994 12.7691 30.7209 11.7801 29.4435 11.7801V14.1827ZM29.4968 14.1541V27.5274H31.8994V14.1541H29.4968ZM29.4968 27.5274C29.4968 27.5125 29.5004 27.4979 29.5052 27.4873C29.5095 27.4779 29.5127 27.4759 29.5098 27.4786C29.5035 27.4845 29.4824 27.4988 29.4435 27.4988V29.9014C30.7209 29.9014 31.8994 28.9124 31.8994 27.5274H29.4968ZM29.4435 27.4988H15.1363V29.9014H29.4435V27.4988ZM15.1363 27.4988C15.0974 27.4988 15.0763 27.4845 15.07 27.4786C15.0672 27.4759 15.0703 27.4779 15.0746 27.4873C15.0794 27.4979 15.083 27.5125 15.083 27.5274H12.6805C12.6805 28.9124 13.8589 29.9014 15.1363 29.9014V27.4988ZM15.083 27.5274V14.1541H12.6805V27.5274H15.083ZM15.083 14.1541C15.083 14.1689 15.0794 14.1835 15.0746 14.1941C15.0703 14.2036 15.0672 14.2055 15.07 14.2029C15.0763 14.1969 15.0974 14.1827 15.1363 14.1827V11.7801C13.8589 11.7801 12.6805 12.7691 12.6805 14.1541H15.083ZM15.1363 14.1827H29.4435V11.7801H15.1363V14.1827ZM29.4435 11.3557H15.1363V13.7583H29.4435V11.3557ZM15.1363 11.3557C13.6055 11.3557 12.2265 12.5349 12.2265 14.1541H14.629C14.629 14.0106 14.7785 13.7583 15.1363 13.7583V11.3557ZM12.2265 14.1541V27.5274H14.629V14.1541H12.2265ZM12.2265 27.5274C12.2265 29.1493 13.6084 30.3258 15.1363 30.3258V27.9232C14.7786 27.9232 14.629 27.6709 14.629 27.5274H12.2265ZM15.1363 30.3258H29.4435V27.9232H15.1363V30.3258ZM29.4435 30.3258C30.9743 30.3258 32.3534 29.1466 32.3534 27.5274H29.9508C29.9508 27.6708 29.8013 27.9232 29.4435 27.9232V30.3258ZM32.3534 27.5274V14.1541H29.9508V27.5274H32.3534ZM32.3534 14.1541C32.3534 12.5322 30.9714 11.3557 29.4435 11.3557V13.7583C29.8012 13.7583 29.9508 14.0106 29.9508 14.1541H32.3534Z" fill="white" mask="url(#path-21-inside-2_418_4701)"/>
</g>
<g filter="url(#filter20_d_418_4701)">
<path d="M22.2896 35.2023V31.8795" stroke="white" stroke-width="1.1337" stroke-miterlimit="10" stroke-linecap="round"/>
</g>
<g filter="url(#filter21_d_418_4701)">
<path d="M22.2896 9.80244V6.47961" stroke="white" stroke-width="1.1337" stroke-miterlimit="10" stroke-linecap="round"/>
</g>
<g filter="url(#filter22_d_418_4701)">
<path d="M16.2334 18.8958C16.8978 17.9042 17.5636 16.9126 18.2235 15.9181C18.3067 15.7937 18.4035 15.7441 18.5594 15.7441C21.0474 15.747 23.5353 15.747 26.0217 15.7441C26.1776 15.7441 26.2745 15.7937 26.3562 15.9195C26.9888 16.8744 27.6274 17.825 28.2645 18.777C28.378 18.9467 28.3765 18.9878 28.2448 19.1405C26.3335 21.3572 24.4221 23.5752 22.5108 25.7918C22.3428 25.9871 22.2369 25.9871 22.0689 25.7918C20.153 23.5695 18.2371 21.3458 16.3212 19.1221C16.2894 19.0854 16.2622 19.0443 16.2334 19.0047C16.2334 18.9679 16.2334 18.9312 16.2334 18.8944V18.8958ZM19.9229 19.1462C20.6993 21.1322 21.4711 23.107 22.2535 25.1072C23.051 23.107 23.838 21.1308 24.6295 19.1462H19.9229ZM22.8074 24.8115L22.8271 24.8229C24.4539 22.9358 26.0792 21.0502 27.7243 19.1419H27.5684C26.7799 19.1419 25.9915 19.1448 25.2045 19.1391C25.0956 19.1391 25.0487 19.1674 25.0123 19.2622C24.292 21.0785 23.5671 22.8934 22.8437 24.7097C22.8301 24.7436 22.8195 24.7776 22.8089 24.8115H22.8074ZM16.8569 19.1448C18.4595 21.0035 20.0455 22.8439 21.6315 24.6842L21.6527 24.6729C20.9323 22.8311 20.212 20.9894 19.4916 19.1462H16.8569V19.1448ZM24.4842 18.7586C23.7441 17.907 23.0193 17.0738 22.2883 16.2336L20.094 18.7586H24.4842ZM19.7111 18.6002L21.857 16.1317H18.7456L19.7111 18.6002ZM22.7211 16.1317C23.4385 16.9564 24.1406 17.7627 24.8534 18.5846C25.1833 17.7571 25.5042 16.9494 25.8311 16.1317H22.7211ZM26.1716 16.3595C25.8492 17.1686 25.5344 17.9594 25.2166 18.7543H27.7727C27.237 17.9537 26.7103 17.1658 26.1716 16.3595ZM18.4051 16.3623L16.8024 18.7586H19.3418L18.4051 16.3623Z" fill="#FF0000"/>
</g>
<defs>
<filter id="filter0_d_418_4701" x="32.9575" y="13.1283" width="5.68848" height="2.13379" filterUnits="userSpaceOnUse" color-interpolation-filters="sRGB">
<feFlood flood-opacity="0" result="BackgroundImageFix"/>
<feColorMatrix in="SourceAlpha" type="matrix" values="0 0 0 0 0 0 0 0 0 0 0 0 0 0 0 0 0 0 127 0" result="hardAlpha"/>
<feOffset/>
<feGaussianBlur stdDeviation="0.25"/>
<feComposite in2="hardAlpha" operator="out"/>
<feColorMatrix type="matrix" values="0 0 0 0 1 0 0 0 0 1 0 0 0 0 1 0 0 0 1 0"/>
<feBlend mode="normal" in2="BackgroundImageFix" result="effect1_dropShadow_418_4701"/>
<feBlend mode="normal" in="SourceGraphic" in2="effect1_dropShadow_418_4701" result="shape"/>
</filter>
<filter id="filter1_d_418_4701" x="32.9575" y="16.4513" width="5.68848" height="2.13379" filterUnits="userSpaceOnUse" color-interpolation-filters="sRGB">
<feFlood flood-opacity="0" result="BackgroundImageFix"/>
<feColorMatrix in="SourceAlpha" type="matrix" values="0 0 0 0 0 0 0 0 0 0 0 0 0 0 0 0 0 0 127 0" result="hardAlpha"/>
<feOffset/>
<feGaussianBlur stdDeviation="0.25"/>
<feComposite in2="hardAlpha" operator="out"/>
<feColorMatrix type="matrix" values="0 0 0 0 1 0 0 0 0 1 0 0 0 0 1 0 0 0 1 0"/>
<feBlend mode="normal" in2="BackgroundImageFix" result="effect1_dropShadow_418_4701"/>
<feBlend mode="normal" in="SourceGraphic" in2="effect1_dropShadow_418_4701" result="shape"/>
</filter>
<filter id="filter2_d_418_4701" x="32.9575" y="19.7742" width="5.68848" height="2.13379" filterUnits="userSpaceOnUse" color-interpolation-filters="sRGB">
<feFlood flood-opacity="0" result="BackgroundImageFix"/>
<feColorMatrix in="SourceAlpha" type="matrix" values="0 0 0 0 0 0 0 0 0 0 0 0 0 0 0 0 0 0 127 0" result="hardAlpha"/>
<feOffset/>
<feGaussianBlur stdDeviation="0.25"/>
<feComposite in2="hardAlpha" operator="out"/>
<feColorMatrix type="matrix" values="0 0 0 0 1 0 0 0 0 1 0 0 0 0 1 0 0 0 1 0"/>
<feBlend mode="normal" in2="BackgroundImageFix" result="effect1_dropShadow_418_4701"/>
<feBlend mode="normal" in="SourceGraphic" in2="effect1_dropShadow_418_4701" result="shape"/>
</filter>
<filter id="filter3_d_418_4701" x="32.9575" y="23.0968" width="5.68848" height="2.13379" filterUnits="userSpaceOnUse" color-interpolation-filters="sRGB">
<feFlood flood-opacity="0" result="BackgroundImageFix"/>
<feColorMatrix in="SourceAlpha" type="matrix" values="0 0 0 0 0 0 0 0 0 0 0 0 0 0 0 0 0 0 127 0" result="hardAlpha"/>
<feOffset/>
<feGaussianBlur stdDeviation="0.25"/>
<feComposite in2="hardAlpha" operator="out"/>
<feColorMatrix type="matrix" values="0 0 0 0 1 0 0 0 0 1 0 0 0 0 1 0 0 0 1 0"/>
<feBlend mode="normal" in2="BackgroundImageFix" result="effect1_dropShadow_418_4701"/>
<feBlend mode="normal" in="SourceGraphic" in2="effect1_dropShadow_418_4701" result="shape"/>
</filter>
<filter id="filter4_d_418_4701" x="32.9575" y="26.4198" width="5.68848" height="2.13379" filterUnits="userSpaceOnUse" color-interpolation-filters="sRGB">
<feFlood flood-opacity="0" result="BackgroundImageFix"/>
<feColorMatrix in="SourceAlpha" type="matrix" values="0 0 0 0 0 0 0 0 0 0 0 0 0 0 0 0 0 0 127 0" result="hardAlpha"/>
<feOffset/>
<feGaussianBlur stdDeviation="0.25"/>
<feComposite in2="hardAlpha" operator="out"/>
<feColorMatrix type="matrix" values="0 0 0 0 1 0 0 0 0 1 0 0 0 0 1 0 0 0 1 0"/>
<feBlend mode="normal" in2="BackgroundImageFix" result="effect1_dropShadow_418_4701"/>
<feBlend mode="normal" in="SourceGraphic" in2="effect1_dropShadow_418_4701" result="shape"/>
</filter>
<filter id="filter5_d_418_4701" x="5.93311" y="13.1283" width="5.68848" height="2.13379" filterUnits="userSpaceOnUse" color-interpolation-filters="sRGB">
<feFlood flood-opacity="0" result="BackgroundImageFix"/>
<feColorMatrix in="SourceAlpha" type="matrix" values="0 0 0 0 0 0 0 0 0 0 0 0 0 0 0 0 0 0 127 0" result="hardAlpha"/>
<feOffset/>
<feGaussianBlur stdDeviation="0.25"/>
<feComposite in2="hardAlpha" operator="out"/>
<feColorMatrix type="matrix" values="0 0 0 0 1 0 0 0 0 1 0 0 0 0 1 0 0 0 1 0"/>
<feBlend mode="normal" in2="BackgroundImageFix" result="effect1_dropShadow_418_4701"/>
<feBlend mode="normal" in="SourceGraphic" in2="effect1_dropShadow_418_4701" result="shape"/>
</filter>
<filter id="filter6_d_418_4701" x="5.93311" y="16.4513" width="5.68848" height="2.13379" filterUnits="userSpaceOnUse" color-interpolation-filters="sRGB">
<feFlood flood-opacity="0" result="BackgroundImageFix"/>
<feColorMatrix in="SourceAlpha" type="matrix" values="0 0 0 0 0 0 0 0 0 0 0 0 0 0 0 0 0 0 127 0" result="hardAlpha"/>
<feOffset/>
<feGaussianBlur stdDeviation="0.25"/>
<feComposite in2="hardAlpha" operator="out"/>
<feColorMatrix type="matrix" values="0 0 0 0 1 0 0 0 0 1 0 0 0 0 1 0 0 0 1 0"/>
<feBlend mode="normal" in2="BackgroundImageFix" result="effect1_dropShadow_418_4701"/>
<feBlend mode="normal" in="SourceGraphic" in2="effect1_dropShadow_418_4701" result="shape"/>
</filter>
<filter id="filter7_d_418_4701" x="5.93311" y="19.7742" width="5.68848" height="2.13379" filterUnits="userSpaceOnUse" color-interpolation-filters="sRGB">
<feFlood flood-opacity="0" result="BackgroundImageFix"/>
<feColorMatrix in="SourceAlpha" type="matrix" values="0 0 0 0 0 0 0 0 0 0 0 0 0 0 0 0 0 0 127 0" result="hardAlpha"/>
<feOffset/>
<feGaussianBlur stdDeviation="0.25"/>
<feComposite in2="hardAlpha" operator="out"/>
<feColorMatrix type="matrix" values="0 0 0 0 1 0 0 0 0 1 0 0 0 0 1 0 0 0 1 0"/>
<feBlend mode="normal" in2="BackgroundImageFix" result="effect1_dropShadow_418_4701"/>
<feBlend mode="normal" in="SourceGraphic" in2="effect1_dropShadow_418_4701" result="shape"/>
</filter>
<filter id="filter8_d_418_4701" x="5.93311" y="23.0968" width="5.68848" height="2.13379" filterUnits="userSpaceOnUse" color-interpolation-filters="sRGB">
<feFlood flood-opacity="0" result="BackgroundImageFix"/>
<feColorMatrix in="SourceAlpha" type="matrix" values="0 0 0 0 0 0 0 0 0 0 0 0 0 0 0 0 0 0 127 0" result="hardAlpha"/>
<feOffset/>
<feGaussianBlur stdDeviation="0.25"/>
<feComposite in2="hardAlpha" operator="out"/>
<feColorMatrix type="matrix" values="0 0 0 0 1 0 0 0 0 1 0 0 0 0 1 0 0 0 1 0"/>
<feBlend mode="normal" in2="BackgroundImageFix" result="effect1_dropShadow_418_4701"/>
<feBlend mode="normal" in="SourceGraphic" in2="effect1_dropShadow_418_4701" result="shape"/>
</filter>
<filter id="filter9_d_418_4701" x="5.93311" y="26.4198" width="5.68848" height="2.13379" filterUnits="userSpaceOnUse" color-interpolation-filters="sRGB">
<feFlood flood-opacity="0" result="BackgroundImageFix"/>
<feColorMatrix in="SourceAlpha" type="matrix" values="0 0 0 0 0 0 0 0 0 0 0 0 0 0 0 0 0 0 127 0" result="hardAlpha"/>
<feOffset/>
<feGaussianBlur stdDeviation="0.25"/>
<feComposite in2="hardAlpha" operator="out"/>
<feColorMatrix type="matrix" values="0 0 0 0 1 0 0 0 0 1 0 0 0 0 1 0 0 0 1 0"/>
<feBlend mode="normal" in2="BackgroundImageFix" result="effect1_dropShadow_418_4701"/>
<feBlend mode="normal" in="SourceGraphic" in2="effect1_dropShadow_418_4701" result="shape"/>
</filter>
<filter id="filter10_d_418_4701" x="14.1128" y="30.8126" width="2.13379" height="5.45654" filterUnits="userSpaceOnUse" color-interpolation-filters="sRGB">
<feFlood flood-opacity="0" result="BackgroundImageFix"/>
<feColorMatrix in="SourceAlpha" type="matrix" values="0 0 0 0 0 0 0 0 0 0 0 0 0 0 0 0 0 0 127 0" result="hardAlpha"/>
<feOffset/>
<feGaussianBlur stdDeviation="0.25"/>
<feComposite in2="hardAlpha" operator="out"/>
<feColorMatrix type="matrix" values="0 0 0 0 1 0 0 0 0 1 0 0 0 0 1 0 0 0 1 0"/>
<feBlend mode="normal" in2="BackgroundImageFix" result="effect1_dropShadow_418_4701"/>
<feBlend mode="normal" in="SourceGraphic" in2="effect1_dropShadow_418_4701" result="shape"/>
</filter>
<filter id="filter11_d_418_4701" x="17.6675" y="30.8126" width="2.13379" height="5.45654" filterUnits="userSpaceOnUse" color-interpolation-filters="sRGB">
<feFlood flood-opacity="0" result="BackgroundImageFix"/>
<feColorMatrix in="SourceAlpha" type="matrix" values="0 0 0 0 0 0 0 0 0 0 0 0 0 0 0 0 0 0 127 0" result="hardAlpha"/>
<feOffset/>
<feGaussianBlur stdDeviation="0.25"/>
<feComposite in2="hardAlpha" operator="out"/>
<feColorMatrix type="matrix" values="0 0 0 0 1 0 0 0 0 1 0 0 0 0 1 0 0 0 1 0"/>
<feBlend mode="normal" in2="BackgroundImageFix" result="effect1_dropShadow_418_4701"/>
<feBlend mode="normal" in="SourceGraphic" in2="effect1_dropShadow_418_4701" result="shape"/>
</filter>
<filter id="filter12_d_418_4701" x="24.7773" y="30.8126" width="2.13379" height="5.45654" filterUnits="userSpaceOnUse" color-interpolation-filters="sRGB">
<feFlood flood-opacity="0" result="BackgroundImageFix"/>
<feColorMatrix in="SourceAlpha" type="matrix" values="0 0 0 0 0 0 0 0 0 0 0 0 0 0 0 0 0 0 127 0" result="hardAlpha"/>
<feOffset/>
<feGaussianBlur stdDeviation="0.25"/>
<feComposite in2="hardAlpha" operator="out"/>
<feColorMatrix type="matrix" values="0 0 0 0 1 0 0 0 0 1 0 0 0 0 1 0 0 0 1 0"/>
<feBlend mode="normal" in2="BackgroundImageFix" result="effect1_dropShadow_418_4701"/>
<feBlend mode="normal" in="SourceGraphic" in2="effect1_dropShadow_418_4701" result="shape"/>
</filter>
<filter id="filter13_d_418_4701" x="28.333" y="30.8126" width="2.13379" height="5.45654" filterUnits="userSpaceOnUse" color-interpolation-filters="sRGB">
<feFlood flood-opacity="0" result="BackgroundImageFix"/>
<feColorMatrix in="SourceAlpha" type="matrix" values="0 0 0 0 0 0 0 0 0 0 0 0 0 0 0 0 0 0 127 0" result="hardAlpha"/>
<feOffset/>
<feGaussianBlur stdDeviation="0.25"/>
<feComposite in2="hardAlpha" operator="out"/>
<feColorMatrix type="matrix" values="0 0 0 0 1 0 0 0 0 1 0 0 0 0 1 0 0 0 1 0"/>
<feBlend mode="normal" in2="BackgroundImageFix" result="effect1_dropShadow_418_4701"/>
<feBlend mode="normal" in="SourceGraphic" in2="effect1_dropShadow_418_4701" result="shape"/>
</filter>
<filter id="filter14_d_418_4701" x="14.1128" y="5.41272" width="2.13379" height="5.45654" filterUnits="userSpaceOnUse" color-interpolation-filters="sRGB">
<feFlood flood-opacity="0" result="BackgroundImageFix"/>
<feColorMatrix in="SourceAlpha" type="matrix" values="0 0 0 0 0 0 0 0 0 0 0 0 0 0 0 0 0 0 127 0" result="hardAlpha"/>
<feOffset/>
<feGaussianBlur stdDeviation="0.25"/>
<feComposite in2="hardAlpha" operator="out"/>
<feColorMatrix type="matrix" values="0 0 0 0 1 0 0 0 0 1 0 0 0 0 1 0 0 0 1 0"/>
<feBlend mode="normal" in2="BackgroundImageFix" result="effect1_dropShadow_418_4701"/>
<feBlend mode="normal" in="SourceGraphic" in2="effect1_dropShadow_418_4701" result="shape"/>
</filter>
<filter id="filter15_d_418_4701" x="17.6675" y="5.41272" width="2.13379" height="5.45654" filterUnits="userSpaceOnUse" color-interpolation-filters="sRGB">
<feFlood flood-opacity="0" result="BackgroundImageFix"/>
<feColorMatrix in="SourceAlpha" type="matrix" values="0 0 0 0 0 0 0 0 0 0 0 0 0 0 0 0 0 0 127 0" result="hardAlpha"/>
<feOffset/>
<feGaussianBlur stdDeviation="0.25"/>
<feComposite in2="hardAlpha" operator="out"/>
<feColorMatrix type="matrix" values="0 0 0 0 1 0 0 0 0 1 0 0 0 0 1 0 0 0 1 0"/>
<feBlend mode="normal" in2="BackgroundImageFix" result="effect1_dropShadow_418_4701"/>
<feBlend mode="normal" in="SourceGraphic" in2="effect1_dropShadow_418_4701" result="shape"/>
</filter>
<filter id="filter16_d_418_4701" x="24.7773" y="5.41272" width="2.13379" height="5.45654" filterUnits="userSpaceOnUse" color-interpolation-filters="sRGB">
<feFlood flood-opacity="0" result="BackgroundImageFix"/>
<feColorMatrix in="SourceAlpha" type="matrix" values="0 0 0 0 0 0 0 0 0 0 0 0 0 0 0 0 0 0 127 0" result="hardAlpha"/>
<feOffset/>
<feGaussianBlur stdDeviation="0.25"/>
<feComposite in2="hardAlpha" operator="out"/>
<feColorMatrix type="matrix" values="0 0 0 0 1 0 0 0 0 1 0 0 0 0 1 0 0 0 1 0"/>
<feBlend mode="normal" in2="BackgroundImageFix" result="effect1_dropShadow_418_4701"/>
<feBlend mode="normal" in="SourceGraphic" in2="effect1_dropShadow_418_4701" result="shape"/>
</filter>
<filter id="filter17_d_418_4701" x="28.333" y="5.41272" width="2.13379" height="5.45654" filterUnits="userSpaceOnUse" color-interpolation-filters="sRGB">
<feFlood flood-opacity="0" result="BackgroundImageFix"/>
<feColorMatrix in="SourceAlpha" type="matrix" values="0 0 0 0 0 0 0 0 0 0 0 0 0 0 0 0 0 0 127 0" result="hardAlpha"/>
<feOffset/>
<feGaussianBlur stdDeviation="0.25"/>
<feComposite in2="hardAlpha" operator="out"/>
<feColorMatrix type="matrix" values="0 0 0 0 1 0 0 0 0 1 0 0 0 0 1 0 0 0 1 0"/>
<feBlend mode="normal" in2="BackgroundImageFix" result="effect1_dropShadow_418_4701"/>
<feBlend mode="normal" in="SourceGraphic" in2="effect1_dropShadow_418_4701" result="shape"/>
</filter>
<filter id="filter18_d_418_4701" x="-0.387833" y="-1.1404" width="45.3562" height="43.964" filterUnits="userSpaceOnUse" color-interpolation-filters="sRGB">
<feFlood flood-opacity="0" result="BackgroundImageFix"/>
<feColorMatrix in="SourceAlpha" type="matrix" values="0 0 0 0 0 0 0 0 0 0 0 0 0 0 0 0 0 0 127 0" result="hardAlpha"/>
<feOffset/>
<feGaussianBlur stdDeviation="6.00642"/>
<feComposite in2="hardAlpha" operator="out"/>
<feColorMatrix type="matrix" values="0 0 0 0 1 0 0 0 0 1 0 0 0 0 1 0 0 0 1 0"/>
<feBlend mode="normal" in2="BackgroundImageFix" result="effect1_dropShadow_418_4701"/>
<feBlend mode="normal" in="SourceGraphic" in2="effect1_dropShadow_418_4701" result="shape"/>
</filter>
<filter id="filter19_d_418_4701" x="1.4149" y="0.544174" width="41.7498" height="40.5932" filterUnits="userSpaceOnUse" color-interpolation-filters="sRGB">
<feFlood flood-opacity="0" result="BackgroundImageFix"/>
<feColorMatrix in="SourceAlpha" type="matrix" values="0 0 0 0 0 0 0 0 0 0 0 0 0 0 0 0 0 0 127 0" result="hardAlpha"/>
<feOffset/>
<feGaussianBlur stdDeviation="6.00642"/>
<feComposite in2="hardAlpha" operator="out"/>
<feColorMatrix type="matrix" values="0 0 0 0 1 0 0 0 0 1 0 0 0 0 1 0 0 0 1 0"/>
<feBlend mode="normal" in2="BackgroundImageFix" result="effect1_dropShadow_418_4701"/>
<feBlend mode="normal" in="SourceGraphic" in2="effect1_dropShadow_418_4701" result="shape"/>
</filter>
<filter id="filter20_d_418_4701" x="21.2227" y="30.8126" width="2.13379" height="5.45654" filterUnits="userSpaceOnUse" color-interpolation-filters="sRGB">
<feFlood flood-opacity="0" result="BackgroundImageFix"/>
<feColorMatrix in="SourceAlpha" type="matrix" values="0 0 0 0 0 0 0 0 0 0 0 0 0 0 0 0 0 0 127 0" result="hardAlpha"/>
<feOffset/>
<feGaussianBlur stdDeviation="0.25"/>
<feComposite in2="hardAlpha" operator="out"/>
<feColorMatrix type="matrix" values="0 0 0 0 1 0 0 0 0 1 0 0 0 0 1 0 0 0 1 0"/>
<feBlend mode="normal" in2="BackgroundImageFix" result="effect1_dropShadow_418_4701"/>
<feBlend mode="normal" in="SourceGraphic" in2="effect1_dropShadow_418_4701" result="shape"/>
</filter>
<filter id="filter21_d_418_4701" x="21.2227" y="5.41272" width="2.13379" height="5.45654" filterUnits="userSpaceOnUse" color-interpolation-filters="sRGB">
<feFlood flood-opacity="0" result="BackgroundImageFix"/>
<feColorMatrix in="SourceAlpha" type="matrix" values="0 0 0 0 0 0 0 0 0 0 0 0 0 0 0 0 0 0 127 0" result="hardAlpha"/>
<feOffset/>
<feGaussianBlur stdDeviation="0.25"/>
<feComposite in2="hardAlpha" operator="out"/>
<feColorMatrix type="matrix" values="0 0 0 0 1 0 0 0 0 1 0 0 0 0 1 0 0 0 1 0"/>
<feBlend mode="normal" in2="BackgroundImageFix" result="effect1_dropShadow_418_4701"/>
<feBlend mode="normal" in="SourceGraphic" in2="effect1_dropShadow_418_4701" result="shape"/>
</filter>
<filter id="filter22_d_418_4701" x="11.3043" y="10.815" width="21.9716" height="20.0524" filterUnits="userSpaceOnUse" color-interpolation-filters="sRGB">
<feFlood flood-opacity="0" result="BackgroundImageFix"/>
<feColorMatrix in="SourceAlpha" type="matrix" values="0 0 0 0 0 0 0 0 0 0 0 0 0 0 0 0 0 0 127 0" result="hardAlpha"/>
<feOffset/>
<feGaussianBlur stdDeviation="2.46457"/>
<feComposite in2="hardAlpha" operator="out"/>
<feColorMatrix type="matrix" values="0 0 0 0 0.917647 0 0 0 0 0.0156863 0 0 0 0 0.502745 0 0 0 1 0"/>
<feBlend mode="normal" in2="BackgroundImageFix" result="effect1_dropShadow_418_4701"/>
<feBlend mode="normal" in="SourceGraphic" in2="effect1_dropShadow_418_4701" result="shape"/>
</filter>
</defs>
</svg>
