<svg width="331" height="353" viewBox="0 0 331 353" fill="none" xmlns="http://www.w3.org/2000/svg">
<g filter="url(#filter0_d_2503_5389)">
<path d="M76.7469 119.708H36.2915V134.963H76.7469V119.708Z" stroke="#F5564F" stroke-width="5" stroke-miterlimit="10"/>
<path d="M76.7469 294.801H36.2915V310.055H76.7469V294.801Z" stroke="#F5564F" stroke-width="5" stroke-miterlimit="10"/>
<path d="M69.1217 134.958H43.9209V294.797H69.1217V134.958Z" stroke="#F5564F" stroke-width="5" stroke-miterlimit="10"/>
<path d="M149.398 119.708H108.943V134.963H149.398V119.708Z" stroke="#F5564F" stroke-width="5" stroke-miterlimit="10"/>
<path d="M149.398 294.801H108.943V310.055H149.398V294.801Z" stroke="#F5564F" stroke-width="5" stroke-miterlimit="10"/>
<path d="M141.773 134.958H116.572V294.797H141.773V134.958Z" stroke="#F5564F" stroke-width="5" stroke-miterlimit="10"/>
<path d="M222.053 119.708H181.598V134.963H222.053V119.708Z" stroke="#F5564F" stroke-width="5" stroke-miterlimit="10"/>
<path d="M222.053 294.801H181.598V310.055H222.053V294.801Z" stroke="#F5564F" stroke-width="5" stroke-miterlimit="10"/>
<path d="M214.424 134.958H189.223V294.797H214.424V134.958Z" stroke="#F5564F" stroke-width="5" stroke-miterlimit="10"/>
<path d="M294.704 119.708H254.249V134.963H294.704V119.708Z" stroke="#F5564F" stroke-width="5" stroke-miterlimit="10"/>
<path d="M294.704 294.801H254.249V310.055H294.704V294.801Z" stroke="#F5564F" stroke-width="5" stroke-miterlimit="10"/>
<path d="M287.075 134.958H261.874V294.797H287.075V134.958Z" stroke="#F5564F" stroke-width="5" stroke-miterlimit="10"/>
</g>
<path d="M327.992 79.9111H3.00781V101.799H327.992V79.9111Z" stroke="#232323" stroke-width="5" stroke-miterlimit="10"/>
<path d="M308.758 101.799H22.2415V119.708H308.758V101.799Z" stroke="#232323" stroke-width="5" stroke-miterlimit="10"/>
<path d="M3.00763 349.848L327.992 349.848V327.96L3.00763 327.96V349.848Z" stroke="#232323" stroke-width="5" stroke-miterlimit="10"/>
<path d="M22.2415 327.964L308.758 327.964V310.055L22.2415 310.055V327.964Z" stroke="#232323" stroke-width="5" stroke-miterlimit="10"/>
<path d="M307.73 79.9112L165.5 3.28076L23.2656 79.9112" stroke="#232323" stroke-width="5" stroke-miterlimit="10"/>
<g filter="url(#filter1_d_2503_5389)">
<path d="M166.733 66.03C177.511 66.03 186.248 57.2928 186.248 46.515C186.248 35.7372 177.511 27 166.733 27C155.955 27 147.218 35.7372 147.218 46.515C147.218 57.2928 155.955 66.03 166.733 66.03Z" stroke="#F5564F" stroke-width="5" stroke-miterlimit="10" shape-rendering="crispEdges"/>
</g>
<defs>
<filter id="filter0_d_2503_5389" x="23.7915" y="107.208" width="283.413" height="215.347" filterUnits="userSpaceOnUse" color-interpolation-filters="sRGB">
<feFlood flood-opacity="0" result="BackgroundImageFix"/>
<feColorMatrix in="SourceAlpha" type="matrix" values="0 0 0 0 0 0 0 0 0 0 0 0 0 0 0 0 0 0 127 0" result="hardAlpha"/>
<feOffset/>
<feGaussianBlur stdDeviation="5"/>
<feComposite in2="hardAlpha" operator="out"/>
<feColorMatrix type="matrix" values="0 0 0 0 0.960784 0 0 0 0 0.337255 0 0 0 0 0.309804 0 0 0 0.5 0"/>
<feBlend mode="normal" in2="BackgroundImageFix" result="effect1_dropShadow_2503_5389"/>
<feBlend mode="normal" in="SourceGraphic" in2="effect1_dropShadow_2503_5389" result="shape"/>
</filter>
<filter id="filter1_d_2503_5389" x="134.718" y="14.5" width="64.03" height="64.03" filterUnits="userSpaceOnUse" color-interpolation-filters="sRGB">
<feFlood flood-opacity="0" result="BackgroundImageFix"/>
<feColorMatrix in="SourceAlpha" type="matrix" values="0 0 0 0 0 0 0 0 0 0 0 0 0 0 0 0 0 0 127 0" result="hardAlpha"/>
<feOffset/>
<feGaussianBlur stdDeviation="5"/>
<feComposite in2="hardAlpha" operator="out"/>
<feColorMatrix type="matrix" values="0 0 0 0 0.960784 0 0 0 0 0.337255 0 0 0 0 0.309804 0 0 0 0.5 0"/>
<feBlend mode="normal" in2="BackgroundImageFix" result="effect1_dropShadow_2503_5389"/>
<feBlend mode="normal" in="SourceGraphic" in2="effect1_dropShadow_2503_5389" result="shape"/>
</filter>
</defs>
</svg>
