<svg width="75" height="75" viewBox="0 0 75 75" fill="none" xmlns="http://www.w3.org/2000/svg">
<g clip-path="url(#clip0_3264_7453)">
<path d="M2.75024 49.0814V64.5269C2.75024 68.7733 6.22659 72.2497 10.473 72.2497H25.9186M25.9186 2.75024H10.473C6.22659 2.75024 2.75024 6.22659 2.75024 10.473V25.9186M72.2497 25.9186V10.473C72.2497 6.22659 68.7733 2.75024 64.5269 2.75024H49.0814M49.0814 72.2497H64.5269C68.7733 72.2497 72.2497 68.7733 72.2497 64.5269V49.0814M56.8041 37.4972C56.8041 26.8427 48.1573 18.1903 37.4972 18.1903C26.8372 18.1903 18.1903 26.8372 18.1903 37.4972C18.1903 48.1573 26.8372 56.8041 37.4972 56.8041C48.1573 56.8041 56.8041 48.1573 56.8041 37.4972V37.4972Z" stroke="#232323" stroke-width="5" stroke-miterlimit="10"/>
</g>
<defs>
<clipPath id="clip0_3264_7453">
<rect width="75" height="75" fill="white"/>
</clipPath>
</defs>
</svg>
